<svg xmlns="http://www.w3.org/2000/svg" viewBox="0 0 1000 600"><defs><style>.cls-1,.cls-6{fill:none;}.cls-1,.cls-2,.cls-3,.cls-4,.cls-5{stroke:#232f4b;}.cls-1,.cls-2,.cls-3,.cls-4,.cls-5,.cls-6{stroke-miterlimit:10;}.cls-2{fill:#222c50;}.cls-3{fill:#fff;}.cls-4{fill:#8ba309;}.cls-5{fill:#ffa8a4;}.cls-6{stroke:#fff;}</style></defs><title>SVG</title><g id="Слой_3" data-name="Слой 3"><line class="cls-1" x1="327.8" y1="213.59" x2="327.8" y2="261.32"/><line class="cls-1" x1="97.74" y1="214.66" x2="96.94" y2="262.4"/><rect class="cls-1" x="593.35" y="397.24" width="327.14" height="12.57"/><line class="cls-1" x1="632.41" y1="409.81" x2="632.41" y2="540.97"/><line class="cls-1" x1="901.33" y1="409.81" x2="901.33" y2="540.97"/><line class="cls-1" x1="73" y1="262.4" x2="428.58" y2="262.4"/><line class="cls-1" x1="184.1" y1="262.4" x2="184.1" y2="166.93"/><line class="cls-1" x1="255.26" y1="140.95" x2="255.26" y2="262.4"/><line class="cls-1" x1="392.26" y1="163.61" x2="392.26" y2="262.4"/><circle class="cls-2" cx="184.1" cy="160.85" r="8.84"/><circle class="cls-2" cx="255.26" cy="132.11" r="8.84"/><circle class="cls-2" cx="391.66" cy="158.08" r="8.84"/><circle class="cls-2" cx="328.63" cy="205.82" r="8.84"/><circle class="cls-2" cx="97.74" cy="205.82" r="8.84"/><path class="cls-1" d="M97.74,205.82s18.93-40,45.46-45,45.87-1.11,74.62,8.84,55.82,8.84,79-8.84,39.64-23.25,60.25-20.18a99.41,99.41,0,0,1,42.56,17.42"/><rect class="cls-1" x="52" y="78.09" width="434.27" height="241.19" rx="12.81" ry="12.81"/><path class="cls-2" d="M382.9,205.18c.17-.5.67-8,.67-8l-49.67,9.17v1.83Z"/><path class="cls-3" d="M366.21,227.57,367.4,206s9.33-9.67-2.17-13.33-6.33,12.5-6.33,12.5l-4.24,16.47Z"/><line class="cls-1" x1="189.15" y1="319.27" x2="189.15" y2="501.17"/><line class="cls-1" x1="368.72" y1="319.27" x2="368.72" y2="501.17"/></g><g id="Слой_2" data-name="Слой 2"><path class="cls-2" d="M157.34,334.09C171.48,369.16,167,516.93,167,516.93H148.17L131.59,381.56,106.17,514.3H87.37S98.08,355,112.8,341,157.34,334.09,157.34,334.09Z"/><path class="cls-3" d="M135.52,244.55c2.67,3.94,10.42,7,15.33,4.7a5.65,5.65,0,0,0,2.21-9c-1.7-1.51-1.14-8.8,0-10s3.75-1.46,6.84-2,3.94-1.65,4.26-7.61-1.53-7.47-1.46-8.93-.39-8.68-.39-8.68a20.71,20.71,0,0,1-3.48,2.23c-8.88,4.61-14.33,7.14-14.7,10.76a3.43,3.43,0,0,0,1.54,3.51,1.66,1.66,0,0,1,.55,2.22,63,63,0,0,0-4.37,9.28A67.09,67.09,0,0,1,135.52,244.55Z"/><path class="cls-4" d="M106.58,349.87c-.1,2.65,53.89-11.26,53.89-11.26l8.38-51s18,18.47,23.26,20.26,37.58-22.25,37.58-22.25l-7.6-9.95L197.5,290.6s-13.7-16-17-21.28c-5.25-8.43-7-14.08-11.74-20.58-4.38-6-14.09-8.16-15.52-8.44a.05.05,0,0,0,0,.09,5.68,5.68,0,0,1-2.34,8.86c-4.91,2.28-12.66-.76-15.33-4.7a34.2,34.2,0,0,1-2.66,3.68c-4.06,4.78-12,5.53-15.84,16.94s-3.55,33.64-3.53,40.77C113.59,339.31,106.86,342.69,106.58,349.87Z"/><polygon class="cls-2" points="859.77 396.9 857.17 358.35 874.52 358.35 897.45 358.35 895.42 397.24 859.77 396.9"/><path class="cls-4" d="M887.8,343.46c-4.35-.71-11-6.08-7.76-17.34s19.11-18.17,25.93-16-2.22,6-1.11,8.92,7.42,3.48,3.07,5.84-1.73,4.71-.43,5.89.51,4.89-6.57,4.43-2.61,9.59-12.33,8.37Z"/><path class="cls-4" d="M880.28,324.41c-4,1.81-12.53,1-16.05-10.16s5.88-25.71,12.77-27.66,1.48,6.24,4,8,8.11-1.2,5.78,3.17,1.16,4.88,2.9,5.14,3.13,3.8-3,7.32S889.78,319.7,881,324Z"/><path class="cls-4" d="M867.37,341c3.11-.72,7.66-4.93,4.78-12.92s-14.69-12.22-19.52-10.32,1.89,4.24,1.23,6.39-5.2,2.88-1.94,4.37,1.48,3.32.59,4.24-.13,3.56,5,2.89,2.35,6.81,9.32,5.46Z"/><path class="cls-3" d="M828.92,267H695.82a4.61,4.61,0,0,0-4.62,4.61v79.93H833.53V271.59A4.61,4.61,0,0,0,828.92,267Z"/><path class="cls-2" d="M691.21,351.52H833.53a0,0,0,0,1,0,0v11.64a5.72,5.72,0,0,1-5.72,5.72H696.93a5.72,5.72,0,0,1-5.72-5.72V351.52A0,0,0,0,1,691.21,351.52Z"/><polygon class="cls-3" points="742.67 368.87 736.54 390.31 784.32 390.31 779.42 368.87 742.67 368.87"/><path class="cls-2" d="M729.9,390.31h62.48a3,3,0,0,1,3,3v3.17a0,0,0,0,1,0,0h-68.4a0,0,0,0,1,0,0v-3.17A3,3,0,0,1,729.9,390.31Z"/><path class="cls-3" d="M824.86,379.35h13.32a3.69,3.69,0,0,1,3.69,3.69v6.42a8.09,8.09,0,0,1-8.09,8.09h-4.52a8.09,8.09,0,0,1-8.09-8.09V383A3.69,3.69,0,0,1,824.86,379.35Z"/><rect class="cls-3" x="830.45" y="382.32" width="2.26" height="4.16" rx="1.13" ry="1.13"/><path class="cls-1" d="M860,325.93c.36.29,10.36,12.48,14.57,32.42"/><line class="cls-1" x1="877.02" y1="305.72" x2="877.02" y2="358.35"/><path class="cls-1" d="M894.31,324.22A63.85,63.85,0,0,0,881,358.35"/><path class="cls-2" d="M634.25,272.74a65.14,65.14,0,0,0-10.08,16.13,21.57,21.57,0,0,0-1,3c-1.34,2.48-3.1,6-4.64,9.32-12.44-3.55-27.26-17.37-30.19-31-3.16-14.82,6-20.15,18.64-24.26a56.38,56.38,0,0,0,20.26-12.1,45.76,45.76,0,0,1-1.2,4.43c-1.82,5.7-4.74,12.41-.56,15.08s7.61,1.53,7.61,1.53S632.44,266.69,634.25,272.74Z"/><polygon class="cls-5" points="632.41 279.03 592.43 286.73 552.11 261.91 543.98 271.91 589.3 302.02 626 301.15 632.41 279.03"/><path class="cls-3" d="M550.7,263.65c.13-.16-13.46-9.22-16.46-9,.37,4.48.75,14.24.75,14.24l3-1.5,6.74,3.58Z"/><rect class="cls-4" x="509.01" y="235.94" width="26.6" height="36.97" rx="6.68" ry="6.68"/><line class="cls-6" x1="513.15" y1="243.06" x2="531.47" y2="243.06"/><line class="cls-6" x1="513.15" y1="250.55" x2="531.47" y2="250.55"/><line class="cls-6" x1="513.15" y1="258.04" x2="531.47" y2="258.04"/><line class="cls-6" x1="513.15" y1="265.54" x2="531.47" y2="265.54"/><path class="cls-2" d="M682.85,271c0,10.28-7,23.5-21.41,23.79a45.75,45.75,0,0,0-.76-6c-1.9-8.49-7.61-14.7-11.29-18.63a25.53,25.53,0,0,1-2.13-2.74c-3.78-5.49-8.74-15.46-8.63-20.2a22.19,22.19,0,0,1,3.16-10.39s-10.38-3.49-14.16-5.24a5.46,5.46,0,0,1-1.29-.72c-1.14-1.14.38-9,10.14-10.27s15.33,0,20,8.37,1.39,12,6.6,18.5S682.85,260.09,682.85,271Z"/><path class="cls-5" d="M666.25,348.17l-.69.11h0c-3.9.61-32.51,2.08-33.14,2.33-1.16.49-4.16-27.68-5.69-33.94-.29-1.17-.54-2.19-.72-3-1.22-5.27-5.46-12.62-2.86-21.88a21.57,21.57,0,0,1,1-3,65.14,65.14,0,0,1,10.08-16.13,6.37,6.37,0,0,0,1.58,3c3.17,2.73,9-2.19,11.42-8.32a25.53,25.53,0,0,0,2.13,2.74c3.68,3.92,9.38,10.14,11.29,18.63a45.75,45.75,0,0,1,.76,6c.32,4.26.46,9.64.51,15,.08,9.55-.13,19.08-.13,22.15C661.81,337.78,666.25,348.17,666.25,348.17Z"/><path class="cls-3" d="M647.25,267.37c-2.42,6.14-8.25,11.05-11.42,8.32a6.37,6.37,0,0,1-1.58-3c-1.81-6-1.22-18-1.22-18s-3.42,1.14-7.61-1.53-1.26-9.37.56-15.08a45.76,45.76,0,0,0,1.2-4.43c.19-.85.32-1.59.42-2.2,3.78,1.75,14.16,5.24,14.16,5.24a22.19,22.19,0,0,0-3.16,10.39C638.51,251.9,643.47,261.87,647.25,267.37Z"/><path class="cls-2" d="M672.46,371.87c0,10-1.53,18.5-12,21.3s-35.62,6.08-53.87,6.84c-9.24.38-14.12,1.64-16.94,3.14a11.16,11.16,0,0,0-4.48,4.47,23.45,23.45,0,0,0-1.16,2.19c-1.78,3.61-5.31,11.2-9.33,20h0c-9.11,19.92-19,46.31-19,46.31l-2.59-.45-7.44-1.3h0L543.7,474s11.55-38.14,20.53-62.63c3.28-9,6.21-16.07,8.11-18.86,5-7.32,48.25-28.61,48.25-28.61l11.82-3.7v-9.61c.63-.25,29.24-1.72,33.14-2.33h0c.49.4.82.65.82.65S672.46,361.87,672.46,371.87Z"/><path class="cls-2" d="M632.41,360.22c-8.84,2.32-55.07,25-60.07,32.31-1.9,2.79-4.83,9.9-8.11,18.86-7.1-13.84-11-26-5.45-31.15,3.57-3.34,17-9.09,28.9-12.39C600.09,364.4,620.08,357.76,632.41,360.22Z"/><path class="cls-2" d="M600.09,460.21l-1.56.91-1.81,1.05-4.6,2.68-1.4.82-3.5-7.82-12.56-28h0c4-8.79,7.55-16.37,9.33-20,1.43,4.41,4,12.37,6.63,20.68s5.45,17.09,7.31,22.9h0Z"/><path class="cls-3" d="M553.07,475.67c-.77,4.74-3.74,12.81-4.81,16h0a5,5,0,0,1-.27.67c-1.27,2.44-10.06,10.88-16.14,9.62l1-2.5,6.95-7.12,5.82-18h0Z"/><path class="cls-2" d="M550.95,502.74l-3.21,1.18s-.25-1.95-1.86-2-2.8,2.86-7.35,5-16.74,5.66-17.41,2.62c-.54-2.45,7.26-7.66,11.73-10l-1,2.5c6.08,1.26,14.87-7.17,16.14-9.62a5,5,0,0,0,.27-.67,9.54,9.54,0,0,1,1.85,3.88A30.92,30.92,0,0,1,550.95,502.74Z"/><path class="cls-2" d="M615.79,499.32,613,501.74s-.34-3.13-2.79-2.44-2.73,5.14-7.37,8-11.81,4-12.15,1.54c-.28-2.07,9.06-13.36,11.94-16.77l1.58,4.1s4.65-6.51,3.13-11.5c-.12-.4,2.75,1,4.06,3.38C613.48,491.86,615.79,499.32,615.79,499.32Z"/><path class="cls-6" d="M600.09,378.39s-20.82,5.24-25.89,11.49-10,21.52-10,21.52"/><line class="cls-6" x1="584.59" y1="409.81" x2="574.32" y2="430.54"/><path class="cls-3" d="M596.42,504.49c-1.58-1,6.19-12.42,6.19-12.42l-7.53-19.54-3-7.68,4.6-2.68,1.81-1.05c1.83,4.73,6.5,16.78,8.31,22.08.19.59,2.25,5.9,2.38,6.3C610.74,494.48,598,505.44,596.42,504.49Z"/><path class="cls-5" d="M652.94,284.37c-6.83.39-13.42,21.92-14.08,35.67s0,20.63,0,20.63l-26.19,42.89,11.46,8.27s30.45-44.61,30.78-45.59S669.63,283.41,652.94,284.37Z"/><path class="cls-4" d="M616.51,395.33s-17.93-1.2-23.16,1.91c-4,2.39-1.87,19-.65,26.65a4.51,4.51,0,0,0,4.45,3.8h16.61a4.51,4.51,0,0,0,4.5-4.17C618.85,415.51,619.7,398.49,616.51,395.33Z"/><path class="cls-3" d="M616.31,386.18s-7.41,13.25-7.41,18,9.82,7,12.77,1.47-.65-8.11-.65-8.11l3.11-5.73Z"/><line class="cls-6" x1="595.47" y1="405.56" x2="606.71" y2="405.56"/><line class="cls-6" x1="595.47" y1="413.67" x2="612.67" y2="413.67"/><line class="cls-6" x1="596.2" y1="420.85" x2="612.67" y2="420.85"/><path class="cls-1" d="M439.21,211.3a8.21,8.21,0,0,0,.76,3.11,1,1,0,0,1-.21.17c-3.94,3-8.12,6.51-12.18,7.79a8.06,8.06,0,0,1-7.76-1.12c-5.24-3.95-3-19.89-2.17-24.78.15-.92.27-1.45.27-1.45a28.58,28.58,0,0,0,16.72,1.34c-.82,4.24-1.65,11.14.76,10.77s3-4.12,5.89-2S441.81,211.11,439.21,211.3Z"/><path class="cls-1" d="M444.79,229.91s-12.55,7.05-12.92,7.52-4.28-6-4.28-6v-9c4.06-1.28,8.25-4.76,12.18-7.79a1,1,0,0,0,.21-.17Z"/><polygon class="cls-2" points="460.64 352.25 435.65 350.65 417.07 349.47 403.16 348.58 408.45 515.48 427.06 515.85 432.84 384.17 447.14 517.77 465.95 517.77 460.64 352.25"/><path class="cls-4" d="M467.6,249.85c-5.75-8.2-22.82-19.94-22.82-19.94a71.85,71.85,0,0,0-25.31,4.67c-12.91,5-32.37,15-50.22,12.32-4.5-8-1.25-26.77-1.25-26.77l-13.34-5.47s-5.26,33.31-3.93,41.64,9.78,11,18.6,11.22c11.22.33,33.64-2.87,37.17,2.48s-3.34,78.58-3.34,78.58,20.69,7.16,33,7.16,32.68-3,32.68-3c.48-.74,1-1.5,1.44-2.29,5.91-9.63,17.74-23.32,18.07-37.34S473.35,258,467.6,249.85Zm-3.95,79.46-.78-36.18,8.62,22Z"/><path class="cls-2" d="M448.33,191c-4.3-8.1-9.37-8.24-16.35-7.35s-15.52-4.81-15.52-4.81-3.74,1.26-3.74,9a9.6,9.6,0,0,0,4.93,8.67c.15-.92.27-1.45.27-1.45a24.78,24.78,0,0,0,6.51,1.71L422.57,204s5.23-2.62,4.49,1.8a7.87,7.87,0,0,1-4.49,5.9s.25,7.52,2.74,9.95,16.67,2.76,21.83-3.13S451.26,196.46,448.33,191Z"/><polygon class="cls-3" points="460.13 353.81 462.89 338.61 468.87 352.77 460.13 353.81"/><polygon class="cls-3" points="449.58 516.93 450.96 529.92 462.01 524.95 462.01 516.93 449.58 516.93"/><polygon class="cls-3" points="423.88 516.24 422.49 533.1 411.16 528.95 411.16 514.3 423.88 516.24"/><path class="cls-2" d="M462,524.94l3,.83,5.8,4.15s6.49.41,8.84,3.59a15.94,15.94,0,0,1,2.63,7.46H450.54l.41-11.05Z"/><path class="cls-2" d="M422.49,533.1v11.05h-31s2.63-10.64,10.64-11.05a90,90,0,0,1,9-4.15Z"/><polygon class="cls-3" points="151.76 516.93 153.14 529.92 164.2 524.95 164.2 516.93 151.76 516.93"/><path class="cls-2" d="M164.2,524.94l14.86,9.67s12.16,2.95,12.16,5.9c-11.79.55-38.49.46-38.49.46l.41-11.05Z"/><polygon class="cls-3" points="88.86 514.3 87.34 527.43 98.39 522.46 101.3 514.3 88.86 514.3"/><path class="cls-2" d="M98.39,522.46l14.86,9.67s12.16,2.95,12.16,5.9c-11.79.55-38.49.46-38.49.46l.41-11.05Z"/><path class="cls-2" d="M165.68,195.59h-7.61s-8.74-7.73-20.15-3.29S128.8,213.84,125,220.16s-21.25,34-24.36,38.51c1.76,6.7,14.37,22.51,32.79,17.9s25.2-22.87,25.2-34.71c0-5.08-6.59-23-6.59-23a3.6,3.6,0,0,1-3-4.1c.38-3.61,1-4.82,9.83-9.43a20.71,20.71,0,0,0,3.48-2.23C167.11,199.19,165.68,195.59,165.68,195.59Z"/><rect class="cls-4" x="236.61" y="254.67" width="28.19" height="38.46" rx="2.51" ry="2.51"/><path class="cls-3" d="M229.14,284.9c2.07-1.55,10.55-2.08,14.51-5.36,5.39-4.46,1.93-13.54-5-14.23S232.6,272,232.6,272l-9.24,5.37Z"/><line class="cls-6" x1="241.86" y1="260.24" x2="259.82" y2="260.24"/><line class="cls-6" x1="250.7" y1="270.01" x2="259.82" y2="270.01"/><line class="cls-6" x1="241.86" y1="282.63" x2="259.82" y2="282.63"/><polyline class="cls-3" points="701.41 351.13 701.41 277.61 823.38 277.61 823.38 351.52"/><path class="cls-4" d="M773.11,307.48H748.36a2.81,2.81,0,0,1-2.81-2.81h0a2.81,2.81,0,0,1,2.81-2.81h24.75a2.81,2.81,0,0,1,2.81,2.81h0A2.81,2.81,0,0,1,773.11,307.48Z"/><path class="cls-3" d="M781,321.36H742.27A3.37,3.37,0,0,1,738.9,318h0a3.37,3.37,0,0,1,3.37-3.37H781a3.37,3.37,0,0,1,3.37,3.37h0A3.37,3.37,0,0,1,781,321.36Z"/><path class="cls-3" d="M781,331.87H742.27a3.37,3.37,0,0,1-3.37-3.37h0a3.37,3.37,0,0,1,3.37-3.37H781a3.37,3.37,0,0,1,3.37,3.37h0A3.37,3.37,0,0,1,781,331.87Z"/></g></svg>